{
  "accessors": [
    {
      "bufferView": 2,
      "componentType": 5126,
      "count": 1583,
      "max": [
        7.826663017272949,
        1.5104119777679443,
        1.705312967300415
      ],
      "min": [
        -1.5390369892120361,
        -1.803966999053955,
        1.3780930042266846
      ],
      "type": "VEC3"
    },
    {
      "bufferView": 2,
      "byteOffset": 18996,
      "componentType": 5126,
      "count": 1583,
      "max": [
        0.00025299994740635157,
        0.09807006269693375,
        -0.9951795935630798
      ],
      "min": [
        0.0,
        0.09803500026464462,
        -0.995182991027832
      ],
      "type": "VEC3"
    },
    {
      "bufferView": 3,
      "componentType": 5126,
      "count": 1583,
      "max": [
        -1.0,
        2.4806129658827558e-05,
        0.0,
        1.0
      ],
      "min": [
        -1.0,
        0.0,
        -0.0002517809043638408,
        1.0
      ],
      "type": "VEC4"
    },
    {
      "bufferView": 1,
      "componentType": 5126,
      "count": 1583,
      "max": [
        0.0,
        0.0
      ],
      "min": [
        0.0,
        0.0
      ],
      "type": "VEC2"
    },
    {
      "bufferView": 0,
      "componentType": 5125,
      "count": 4704,
      "type": "SCALAR"
    },
    {
      "bufferView": 2,
      "byteOffset": 37992,
      "componentType": 5126,
      "count": 529,
      "max": [
        7.9611687660217285,
        1.5509639978408813,
        1.8765239715576172
      ],
      "min": [
        -1.6148649454116821,
        -1.8754600286483765,
        1.14000403881073
      ],
      "type": "VEC3"
    },
    {
      "bufferView": 2,
      "byteOffset": 44340,
      "componentType": 5126,
      "count": 529,
      "max": [
        1.0,
        1.0,
        0.9981224536895752
      ],
      "min": [
        -1.0,
        -0.9999979734420776,
        -1.0
      ],
      "type": "VEC3"
    },
    {
      "bufferView": 3,
      "byteOffset": 25328,
      "componentType": 5126,
      "count": 529,
      "max": [
        0.7394012808799744,
        1.0,
        1.0,
        1.0
      ],
      "min": [
        -0.7407976388931274,
        -0.7733730673789978,
        -1.0,
        1.0
      ],
      "type": "VEC4"
    },
    {
      "bufferView": 1,
      "byteOffset": 12664,
      "componentType": 5126,
      "count": 529,
      "max": [
        0.7527890205383301,
        1.0
      ],
      "min": [
        0.0,
        0.0
      ],
      "type": "VEC2"
    },
    {
      "bufferView": 0,
      "byteOffset": 18816,
      "componentType": 5125,
      "count": 2214,
      "type": "SCALAR"
    },
    {
      "bufferView": 2,
      "byteOffset": 50688,
      "componentType": 5126,
      "count": 8300,
      "max": [
        139.16592407226563,
        10.017244338989258,
        2.0706920623779297
      ],
      "min": [
        -21.013351440429688,
        -42.82405090332031,
        -4.8989458084106445
      ],
      "type": "VEC3"
    },
    {
      "bufferView": 2,
      "byteOffset": 150288,
      "componentType": 5126,
      "count": 8300,
      "max": [
        0.9655583500862122,
        0.9788891077041626,
        1.0
      ],
      "min": [
        -0.9825934767723083,
        -0.9692723751068115,
        0.10783901810646057
      ],
      "type": "VEC3"
    },
    {
      "bufferView": 3,
      "byteOffset": 33792,
      "componentType": 5126,
      "count": 8300,
      "max": [
        1.0,
        1.0,
        0.9939792156219482,
        1.0
      ],
      "min": [
        -1.0,
        -1.0,
        -0.9919658303260803,
        1.0
      ],
      "type": "VEC4"
    },
    {
      "bufferView": 1,
      "byteOffset": 16896,
      "componentType": 5126,
      "count": 8300,
      "max": [
        0.9985899925231934,
        1.0
      ],
      "min": [
        0.0,
        0.0
      ],
      "type": "VEC2"
    },
    {
      "bufferView": 0,
      "byteOffset": 27672,
      "componentType": 5125,
      "count": 34164,
      "type": "SCALAR"
    }
  ],
  "asset": {
    "extras": {
      "author": "unknown.fbx (https://sketchfab.com/unknown.fbx)",
      "license": "CC-BY-4.0 (http://creativecommons.org/licenses/by/4.0/)",
      "source": "https://sketchfab.com/3d-models/custom-mechanical-keyboard-90d61eec0c484332ab562c5f4eda6f52",
      "title": "Custom - Mechanical Keyboard"
    },
    "generator": "Sketchfab-14.91.0",
    "version": "2.0"
  },
  "bufferViews": [
    {
      "buffer": 0,
      "byteLength": 164328,
      "name": "floatBufferViews",
      "target": 34963
    },
    {
      "buffer": 0,
      "byteLength": 83296,
      "byteOffset": 164328,
      "byteStride": 8,
      "name": "floatBufferViews",
      "target": 34962
    },
    {
      "buffer": 0,
      "byteLength": 249888,
      "byteOffset": 247624,
      "byteStride": 12,
      "name": "floatBufferViews",
      "target": 34962
    },
    {
      "buffer": 0,
      "byteLength": 166592,
      "byteOffset": 497512,
      "byteStride": 16,
      "name": "floatBufferViews",
      "target": 34962
    }
  ],
  "buffers": [
    {
      "byteLength": 664104,
      "uri": "scene.bin"
    }
  ],
  "images": [
    {
      "uri": "textures/Keyboard_baseColor.jpeg"
    },
    {
      "uri": "textures/Keyboard_metallicRoughness.png"
    },
    {
      "uri": "textures/Keyboard_normal.png"
    },
    {
      "uri": "textures/Wood_00_baseColor.jpeg"
    },
    {
      "uri": "textures/Wood_00_metallicRoughness.png"
    },
    {
      "uri": "textures/Wood_00_normal.png"
    }
  ],
  "materials": [
    {
      "doubleSided": true,
      "name": "Keyboard",
      "normalTexture": {
        "index": 2
      },
      "occlusionTexture": {
        "index": 1
      },
      "pbrMetallicRoughness": {
        "baseColorTexture": {
          "index": 0
        },
        "metallicRoughnessTexture": {
          "index": 1
        }
      }
    },
    {
      "doubleSided": true,
      "name": "Wood_00",
      "normalTexture": {
        "index": 5
      },
      "occlusionTexture": {
        "index": 4
      },
      "pbrMetallicRoughness": {
        "baseColorTexture": {
          "index": 3
        },
        "metallicRoughnessTexture": {
          "index": 4
        }
      }
    }
  ],
  "meshes": [
    {
      "name": "defaultMaterial",
      "primitives": [
        {
          "attributes": {
            "NORMAL": 1,
            "POSITION": 0,
            "TANGENT": 2,
            "TEXCOORD_0": 3
          },
          "indices": 4,
          "material": 0,
          "mode": 4
        }
      ]
    },
    {
      "name": "defaultMaterial",
      "primitives": [
        {
          "attributes": {
            "NORMAL": 6,
            "POSITION": 5,
            "TANGENT": 7,
            "TEXCOORD_0": 8
          },
          "indices": 9,
          "material": 1,
          "mode": 4
        }
      ]
    },
    {
      "name": "defaultMaterial",
      "primitives": [
        {
          "attributes": {
            "NORMAL": 11,
            "POSITION": 10,
            "TANGENT": 12,
            "TEXCOORD_0": 13
          },
          "indices": 14,
          "material": 0,
          "mode": 4
        }
      ]
    }
  ],
  "nodes": [
    {
      "children": [
        1
      ],
      "matrix": [
        1.0,
        0.0,
        0.0,
        0.0,
        0.0,
        2.220446049250313e-16,
        -1.0,
        0.0,
        0.0,
        1.0,
        2.220446049250313e-16,
        0.0,
        0.0,
        0.0,
        0.0,
        1.0
      ],
      "name": "Sketchfab_model"
    },
    {
      "children": [
        2,
        4,
        6
      ],
      "matrix": [
        1.0,
        0.0,
        0.0,
        0.0,
        0.0,
        -4.371139006309477e-08,
        0.999999999999999,
        0.0,
        0.0,
        -0.999999999999999,
        -4.371139006309477e-08,
        0.0,
        0.0,
        0.0,
        0.0,
        1.0
      ],
      "name": "Collada visual scene group"
    },
    {
      "children": [
        3
      ],
      "matrix": [
        100.0,
        0.0,
        0.0,
        0.0,
        0.0,
        -1.6e-05,
        -100.0,
        0.0,
        0.0,
        100.0,
        -1.6e-05,
        0.0,
        0.0,
        -23.906609,
        0.0,
        1.0
      ],
      "name": "Cube.001"
    },
    {
      "mesh": 0,
      "name": "defaultMaterial"
    },
    {
      "children": [
        5
      ],
      "matrix": [
        100.0,
        0.0,
        0.0,
        0.0,
        0.0,
        -1.6e-05,
        -100.0,
        0.0,
        0.0,
        100.0,
        -1.6e-05,
        0.0,
        0.0,
        -23.906609,
        0.0,
        1.0
      ],
      "name": "Cube"
    },
    {
      "mesh": 1,
      "name": "defaultMaterial"
    },
    {
      "children": [
        7
      ],
      "matrix": [
        5.743643,
        0.0,
        0.0,
        0.0,
        0.0,
        0.541479,
        -5.718062,
        0.0,
        0.0,
        5.718062,
        0.541479,
        0.0,
        -21.666168,
        173.137314,
        -75.702347,
        1.0
      ],
      "name": "Plane"
    },
    {
      "mesh": 2,
      "name": "defaultMaterial"
    }
  ],
  "samplers": [
    {
      "magFilter": 9729,
      "minFilter": 9987,
      "wrapS": 10497,
      "wrapT": 10497
    }
  ],
  "scene": 0,
  "scenes": [
    {
      "name": "Sketchfab_Scene",
      "nodes": [
        0
      ]
    }
  ],
  "textures": [
    {
      "sampler": 0,
      "source": 0
    },
    {
      "sampler": 0,
      "source": 1
    },
    {
      "sampler": 0,
      "source": 2
    },
    {
      "sampler": 0,
      "source": 3
    },
    {
      "sampler": 0,
      "source": 4
    },
    {
      "sampler": 0,
      "source": 5
    }
  ]
}
