{
  "accessors": [
    {
      "bufferView": 2,
      "componentType": 5126,
      "count": 1632,
      "max": [
        159.1179962158203,
        158.80401611328125,
        22.24400520324707
      ],
      "min": [
        -159.1179962158203,
        -158.80401611328125,
        -11.288602828979492
      ],
      "type": "VEC3"
    },
    {
      "bufferView": 2,
      "byteOffset": 19584,
      "componentType": 5126,
      "count": 1632,
      "max": [
        1.0,
        0.9980267882347107,
        1.0
      ],
      "min": [
        -1.0,
        -0.9980267882347107,
        -1.0
      ],
      "type": "VEC3"
    },
    {
      "bufferView": 3,
      "componentType": 5126,
      "count": 1632,
      "max": [
        1.0,
        0.9997802376747131,
        1.0,
        1.0
      ],
      "min": [
        -1.0,
        -0.9997802376747131,
        -1.0,
        1.0
      ],
      "type": "VEC4"
    },
    {
      "bufferView": 1,
      "componentType": 5126,
      "count": 1632,
      "max": [
        0.9869158864021301,
        0.9981310367584229
      ],
      "min": [
        0.0003255009651184082,
        0.002961277961730957
      ],
      "type": "VEC2"
    },
    {
      "bufferView": 0,
      "componentType": 5125,
      "count": 6000,
      "type": "SCALAR"
    },
    {
      "bufferView": 2,
      "byteOffset": 39168,
      "componentType": 5126,
      "count": 51,
      "max": [
        142.48516845703125,
        142.20401000976563,
        -7.377884387969971
      ],
      "min": [
        -142.48516845703125,
        -142.20401000976563,
        -7.377884387969971
      ],
      "type": "VEC3"
    },
    {
      "bufferView": 2,
      "byteOffset": 39780,
      "componentType": 5126,
      "count": 51,
      "max": [
        0.0,
        0.0,
        -1.0
      ],
      "min": [
        0.0,
        0.0,
        -1.0
      ],
      "type": "VEC3"
    },
    {
      "bufferView": 1,
      "byteOffset": 13056,
      "componentType": 5126,
      "count": 51,
      "max": [
        0.9950543642044067,
        0.9950543642044067
      ],
      "min": [
        0.004945656750351191,
        0.006899476051330566
      ],
      "type": "VEC2"
    },
    {
      "bufferView": 0,
      "byteOffset": 24000,
      "componentType": 5125,
      "count": 150,
      "type": "SCALAR"
    },
    {
      "bufferView": 2,
      "byteOffset": 40392,
      "componentType": 5126,
      "count": 545,
      "max": [
        59.06891632080078,
        100.98397064208984,
        0.9565339684486389
      ],
      "min": [
        -64.6868896484375,
        -5.273595333099365,
        -4.861272811889648
      ],
      "type": "VEC3"
    },
    {
      "bufferView": 2,
      "byteOffset": 46932,
      "componentType": 5126,
      "count": 545,
      "max": [
        0.9978091716766357,
        0.9978091716766357,
        -0.0
      ],
      "min": [
        -0.9978091716766357,
        -0.9978091716766357,
        -1.0
      ],
      "type": "VEC3"
    },
    {
      "bufferView": 3,
      "byteOffset": 26112,
      "componentType": 5126,
      "count": 545,
      "max": [
        0.9840244650840759,
        0.9840244650840759,
        1.0,
        1.0
      ],
      "min": [
        -0.9841649532318115,
        -0.984854519367218,
        -0.776946485042572,
        -1.0
      ],
      "type": "VEC4"
    },
    {
      "bufferView": 1,
      "byteOffset": 13464,
      "componentType": 5126,
      "count": 545,
      "max": [
        0.5919120907783508,
        0.9996744394302368
      ],
      "min": [
        0.29931384325027466,
        0.5950597524642944
      ],
      "type": "VEC2"
    },
    {
      "bufferView": 0,
      "byteOffset": 24600,
      "componentType": 5125,
      "count": 1848,
      "type": "SCALAR"
    }
  ],
  "asset": {
    "extras": {
      "author": "Mehdi Shahsavan (https://sketchfab.com/ahmagh2e)",
      "license": "CC-BY-4.0 (http://creativecommons.org/licenses/by/4.0/)",
      "source": "https://sketchfab.com/3d-models/wall-clock-6d7473893d47458495f810f0d2a89945",
      "title": "Wall Clock"
    },
    "generator": "Sketchfab-16.51.0",
    "version": "2.0"
  },
  "bufferViews": [
    {
      "buffer": 0,
      "byteLength": 31992,
      "name": "floatBufferViews",
      "target": 34963
    },
    {
      "buffer": 0,
      "byteLength": 17824,
      "byteOffset": 31992,
      "byteStride": 8,
      "name": "floatBufferViews",
      "target": 34962
    },
    {
      "buffer": 0,
      "byteLength": 53472,
      "byteOffset": 49816,
      "byteStride": 12,
      "name": "floatBufferViews",
      "target": 34962
    },
    {
      "buffer": 0,
      "byteLength": 34832,
      "byteOffset": 103288,
      "byteStride": 16,
      "name": "floatBufferViews",
      "target": 34962
    }
  ],
  "buffers": [
    {
      "byteLength": 138120,
      "uri": "scene.bin"
    }
  ],
  "extensionsUsed": [
    "KHR_materials_transmission"
  ],
  "images": [
    {
      "uri": "textures/material_baseColor.png"
    },
    {
      "uri": "textures/material_metallicRoughness.png"
    },
    {
      "uri": "textures/material_normal.png"
    }
  ],
  "materials": [
    {
      "doubleSided": true,
      "name": "material",
      "normalTexture": {
        "index": 2
      },
      "pbrMetallicRoughness": {
        "baseColorTexture": {
          "index": 0
        },
        "metallicRoughnessTexture": {
          "index": 1
        }
      }
    },
    {
      "alphaMode": "BLEND",
      "doubleSided": true,
      "extensions": {
        "KHR_materials_transmission": {
          "transmissionFactor": 0.7877003280281638
        }
      },
      "name": "glass",
      "pbrMetallicRoughness": {
        "baseColorFactor": [
          0.0,
          0.0,
          0.0,
          0.25
        ],
        "metallicFactor": 0.0,
        "roughnessFactor": 0.0
      }
    }
  ],
  "meshes": [
    {
      "name": "01_01_0",
      "primitives": [
        {
          "attributes": {
            "NORMAL": 1,
            "POSITION": 0,
            "TANGENT": 2,
            "TEXCOORD_0": 3
          },
          "indices": 4,
          "material": 0,
          "mode": 4
        }
      ]
    },
    {
      "name": "glass_glass_0",
      "primitives": [
        {
          "attributes": {
            "NORMAL": 6,
            "POSITION": 5,
            "TEXCOORD_0": 7
          },
          "indices": 8,
          "material": 1,
          "mode": 4
        }
      ]
    },
    {
      "name": "01_2_01_0",
      "primitives": [
        {
          "attributes": {
            "NORMAL": 10,
            "POSITION": 9,
            "TANGENT": 11,
            "TEXCOORD_0": 12
          },
          "indices": 13,
          "material": 0,
          "mode": 4
        }
      ]
    }
  ],
  "nodes": [
    {
      "children": [
        1
      ],
      "matrix": [
        1.0,
        0.0,
        0.0,
        0.0,
        0.0,
        2.220446049250313e-16,
        -1.0,
        0.0,
        0.0,
        1.0,
        2.220446049250313e-16,
        0.0,
        0.0,
        0.0,
        0.0,
        1.0
      ],
      "name": "Sketchfab_model"
    },
    {
      "children": [
        2
      ],
      "matrix": [
        1.0,
        0.0,
        0.0,
        0.0,
        0.0,
        0.0,
        1.0,
        0.0,
        0.0,
        -1.0,
        0.0,
        0.0,
        0.0,
        0.0,
        0.0,
        1.0
      ],
      "name": "45ff2eb58182458287d435c67cca7ecc.fbx"
    },
    {
      "children": [
        3,
        5,
        7,
        9
      ],
      "name": "RootNode"
    },
    {
      "children": [
        4
      ],
      "matrix": [
        -0.6999049914328672,
        0.039561069548629986,
        0.7131394847738602,
        0.0,
        0.027710683228159474,
        0.999217154464518,
        -0.02823466413577714,
        0.0,
        -0.7136982002235869,
        3.191891195797325e-16,
        -0.7004533382014917,
        0.0,
        437.03228759765625,
        9.997730255126953,
        -438.1499938964844,
        1.0
      ],
      "name": "CINEMA_4D_Editor"
    },
    {
      "name": "Object_4"
    },
    {
      "children": [
        6
      ],
      "name": "01"
    },
    {
      "mesh": 0,
      "name": "01_01_0"
    },
    {
      "children": [
        8
      ],
      "name": "glass"
    },
    {
      "mesh": 1,
      "name": "glass_glass_0"
    },
    {
      "children": [
        10
      ],
      "name": "01_2"
    },
    {
      "mesh": 2,
      "name": "01_2_01_0"
    }
  ],
  "samplers": [
    {
      "magFilter": 9729,
      "minFilter": 9987,
      "wrapS": 10497,
      "wrapT": 10497
    }
  ],
  "scene": 0,
  "scenes": [
    {
      "name": "Sketchfab_Scene",
      "nodes": [
        0
      ]
    }
  ],
  "textures": [
    {
      "sampler": 0,
      "source": 0
    },
    {
      "sampler": 0,
      "source": 1
    },
    {
      "sampler": 0,
      "source": 2
    }
  ]
}
