{
  "accessors": [
    {
      "bufferView": 2,
      "componentType": 5126,
      "count": 65532,
      "max": [
        0.9598668217658997,
        1.038055181503296,
        0.4777698814868927
      ],
      "min": [
        -0.9605652093887329,
        -1.0376309156417847,
        -0.471718966960907
      ],
      "type": "VEC3"
    },
    {
      "bufferView": 2,
      "byteOffset": 786384,
      "componentType": 5126,
      "count": 65532,
      "max": [
        0.9999856948852539,
        0.9979146718978882,
        0.999987006187439
      ],
      "min": [
        -0.9999719262123108,
        -0.9975516200065613,
        -0.9999998807907104
      ],
      "type": "VEC3"
    },
    {
      "bufferView": 1,
      "componentType": 5126,
      "count": 65532,
      "max": [
        1.2285360097885132,
        1.0000001192092896
      ],
      "min": [
        0.2211497277021408,
        0.0
      ],
      "type": "VEC2"
    },
    {
      "bufferView": 0,
      "componentType": 5125,
      "count": 369993,
      "type": "SCALAR"
    },
    {
      "bufferView": 2,
      "byteOffset": 1572768,
      "componentType": 5126,
      "count": 8294,
      "max": [
        0.9584604501724243,
        0.9391062259674072,
        0.43312177062034607
      ],
      "min": [
        -0.933515191078186,
        -0.9875264763832092,
        -0.11886458843946457
      ],
      "type": "VEC3"
    },
    {
      "bufferView": 2,
      "byteOffset": 1672296,
      "componentType": 5126,
      "count": 8294,
      "max": [
        0.9974634051322937,
        0.9962255954742432,
        0.9999613761901855
      ],
      "min": [
        -0.9903609156608582,
        -0.9969640374183655,
        -0.948673665523529
      ],
      "type": "VEC3"
    },
    {
      "bufferView": 1,
      "byteOffset": 524256,
      "componentType": 5126,
      "count": 8294,
      "max": [
        1.2285360097885132,
        0.9772728085517883
      ],
      "min": [
        0.2211497277021408,
        0.0
      ],
      "type": "VEC2"
    },
    {
      "bufferView": 0,
      "byteOffset": 1479972,
      "componentType": 5125,
      "count": 43959,
      "type": "SCALAR"
    }
  ],
  "asset": {
    "extras": {
      "author": "jomytfj (https://sketchfab.com/jomytfj)",
      "license": "CC-BY-4.0 (http://creativecommons.org/licenses/by/4.0/)",
      "source": "https://sketchfab.com/3d-models/cheetos-5a10f6c5436640058686c76f84da01f1",
      "title": "cheetos"
    },
    "generator": "Sketchfab-16.75.0",
    "version": "2.0"
  },
  "bufferViews": [
    {
      "buffer": 0,
      "byteLength": 1655808,
      "name": "floatBufferViews",
      "target": 34963
    },
    {
      "buffer": 0,
      "byteLength": 590608,
      "byteOffset": 1655808,
      "byteStride": 8,
      "name": "floatBufferViews",
      "target": 34962
    },
    {
      "buffer": 0,
      "byteLength": 1771824,
      "byteOffset": 2246416,
      "byteStride": 12,
      "name": "floatBufferViews",
      "target": 34962
    }
  ],
  "buffers": [
    {
      "byteLength": 4018240,
      "uri": "scene.bin"
    }
  ],
  "extensionsUsed": [
    "KHR_materials_specular"
  ],
  "images": [
    {
      "uri": "textures/Material.001_baseColor.jpeg"
    }
  ],
  "materials": [
    {
      "doubleSided": true,
      "extensions": {
        "KHR_materials_specular": {
          "specularColorFactor": [
            1.0,
            1.0,
            1.0
          ],
          "specularFactor": 0.5525227148227204
        }
      },
      "name": "Material.001",
      "pbrMetallicRoughness": {
        "baseColorTexture": {
          "index": 0
        },
        "metallicFactor": 0.0,
        "roughnessFactor": 0.09487019651548645
      }
    }
  ],
  "meshes": [
    {
      "name": "Plane_Material.001_0",
      "primitives": [
        {
          "attributes": {
            "NORMAL": 1,
            "POSITION": 0,
            "TEXCOORD_0": 2
          },
          "indices": 3,
          "material": 0,
          "mode": 4
        }
      ]
    },
    {
      "name": "Plane_Material.001_0",
      "primitives": [
        {
          "attributes": {
            "NORMAL": 5,
            "POSITION": 4,
            "TEXCOORD_0": 6
          },
          "indices": 7,
          "material": 0,
          "mode": 4
        }
      ]
    }
  ],
  "nodes": [
    {
      "children": [
        1
      ],
      "matrix": [
        1.0,
        0.0,
        0.0,
        0.0,
        0.0,
        2.220446049250313e-16,
        -1.0,
        0.0,
        0.0,
        1.0,
        2.220446049250313e-16,
        0.0,
        0.0,
        0.0,
        0.0,
        1.0
      ],
      "name": "Sketchfab_model"
    },
    {
      "children": [
        2
      ],
      "matrix": [
        0.009999999776482582,
        0.0,
        0.0,
        0.0,
        0.0,
        0.0,
        0.009999999776482582,
        0.0,
        0.0,
        -0.009999999776482582,
        0.0,
        0.0,
        0.0,
        0.0,
        0.0,
        1.0
      ],
      "name": "d57165a3d8594d4ebce200f794a96b21.fbx"
    },
    {
      "children": [
        3,
        6,
        9,
        12,
        15,
        18,
        21,
        23
      ],
      "name": "RootNode"
    },
    {
      "children": [
        4
      ],
      "matrix": [
        100.0,
        0.0,
        0.0,
        0.0,
        0.0,
        99.99999999999972,
        -7.5497901264043296e-06,
        0.0,
        0.0,
        7.5497901264043296e-06,
        99.99999999999972,
        0.0,
        0.0,
        272.5190734863281,
        0.0,
        1.0
      ],
      "name": "Area"
    },
    {
      "children": [
        5
      ],
      "matrix": [
        1.0,
        0.0,
        0.0,
        0.0,
        0.0,
        2.220446049250313e-16,
        1.0,
        0.0,
        0.0,
        -1.0,
        2.220446049250313e-16,
        0.0,
        0.0,
        0.0,
        0.0,
        1.0
      ],
      "name": "Object_4"
    },
    {
      "name": "Object_5"
    },
    {
      "children": [
        7
      ],
      "matrix": [
        -99.99999999999886,
        -1.5099579909783707e-05,
        2.109689728004315e-20,
        0.0,
        1.5099579909783665e-05,
        -99.99999999999858,
        -7.549790126404328e-06,
        0.0,
        1.1399866142542788e-12,
        -7.549790126404241e-06,
        99.99999999999972,
        0.0,
        0.0,
        -269.0580749511719,
        0.0,
        1.0
      ],
      "name": "Area.001"
    },
    {
      "children": [
        8
      ],
      "matrix": [
        1.0,
        0.0,
        0.0,
        0.0,
        0.0,
        2.220446049250313e-16,
        1.0,
        0.0,
        0.0,
        -1.0,
        2.220446049250313e-16,
        0.0,
        0.0,
        0.0,
        0.0,
        1.0
      ],
      "name": "Object_7"
    },
    {
      "name": "Object_8"
    },
    {
      "children": [
        10
      ],
      "matrix": [
        100.0,
        0.0,
        0.0,
        0.0,
        0.0,
        -1.629206793918314e-05,
        99.99999999999868,
        0.0,
        0.0,
        -99.99999999999868,
        -1.629206793918314e-05,
        0.0,
        0.0,
        1.1630833148956299,
        339.4439392089844,
        1.0
      ],
      "name": "Area.002"
    },
    {
      "children": [
        11
      ],
      "matrix": [
        1.0,
        0.0,
        0.0,
        0.0,
        0.0,
        2.220446049250313e-16,
        1.0,
        0.0,
        0.0,
        -1.0,
        2.220446049250313e-16,
        0.0,
        0.0,
        0.0,
        0.0,
        1.0
      ],
      "name": "Object_10"
    },
    {
      "name": "Object_11"
    },
    {
      "children": [
        13
      ],
      "matrix": [
        -99.99999999999774,
        1.5099579909783534e-05,
        -1.5099580252808603e-05,
        0.0,
        1.5099582712842053e-05,
        1.629206569653263e-05,
        -99.99999999999753,
        0.0,
        -1.5099577449749628e-05,
        -99.99999999999753,
        -1.6292067983592062e-05,
        0.0,
        0.0,
        1.1631309986114502,
        -339.4439392089844,
        1.0
      ],
      "name": "Area.003"
    },
    {
      "children": [
        14
      ],
      "matrix": [
        1.0,
        0.0,
        0.0,
        0.0,
        0.0,
        2.220446049250313e-16,
        1.0,
        0.0,
        0.0,
        -1.0,
        2.220446049250313e-16,
        0.0,
        0.0,
        0.0,
        0.0,
        1.0
      ],
      "name": "Object_13"
    },
    {
      "name": "Object_14"
    },
    {
      "children": [
        16
      ],
      "matrix": [
        4.371139006309477e-06,
        -1.1102230246251565e-14,
        99.99999999999991,
        0.0,
        -99.99999999999982,
        -4.371139006309477e-06,
        4.371139011860592e-06,
        0.0,
        4.371139011860592e-06,
        -99.99999999999991,
        -1.9984014443252818e-13,
        0.0,
        -339.4439392089844,
        1.1630833148956299,
        -2.384185791015625e-05,
        1.0
      ],
      "name": "Area.004"
    },
    {
      "children": [
        17
      ],
      "matrix": [
        1.0,
        0.0,
        0.0,
        0.0,
        0.0,
        2.220446049250313e-16,
        1.0,
        0.0,
        0.0,
        -1.0,
        2.220446049250313e-16,
        0.0,
        0.0,
        0.0,
        0.0,
        1.0
      ],
      "name": "Object_16"
    },
    {
      "name": "Object_17"
    },
    {
      "children": [
        19
      ],
      "matrix": [
        3.13916478589249e-05,
        -5.551115123125783e-15,
        -99.99999999999508,
        0.0,
        99.9999999999948,
        7.549789948768648e-06,
        3.139164786447601e-05,
        0.0,
        7.549789959870878e-06,
        -99.99999999999973,
        2.3647750424515834e-12,
        0.0,
        339.4439392089844,
        1.1631309986114502,
        2.384185791015625e-05,
        1.0
      ],
      "name": "Area.005"
    },
    {
      "children": [
        20
      ],
      "matrix": [
        1.0,
        0.0,
        0.0,
        0.0,
        0.0,
        2.220446049250313e-16,
        1.0,
        0.0,
        0.0,
        -1.0,
        2.220446049250313e-16,
        0.0,
        0.0,
        0.0,
        0.0,
        1.0
      ],
      "name": "Object_19"
    },
    {
      "name": "Object_20"
    },
    {
      "children": [
        22
      ],
      "matrix": [
        -65.1558127516791,
        -44.52713915455176,
        -61.417049289096546,
        0.0,
        -32.401349332924404,
        89.53957282709818,
        -30.5420854760369,
        0.0,
        68.59207001076241,
        8.666908837178815e-06,
        -72.76761921184274,
        0.0,
        735.88916015625,
        495.8309326171875,
        692.5791015625,
        1.0
      ],
      "name": "Camera"
    },
    {
      "name": "Object_22"
    },
    {
      "children": [
        24,
        25
      ],
      "matrix": [
        88.26065433837907,
        -7.976202046067193e-07,
        47.01124222737757,
        0.0,
        25.05796836573523,
        135.73513818336002,
        -47.04475932348655,
        0.0,
        -43.75824566515841,
        36.55190371693136,
        82.15335824527092,
        0.0,
        0.0,
        0.0,
        0.0,
        1.0
      ],
      "name": "Plane"
    },
    {
      "mesh": 0,
      "name": "Plane_Material.001_0"
    },
    {
      "mesh": 1,
      "name": "Plane_Material.001_0"
    }
  ],
  "samplers": [
    {
      "magFilter": 9729,
      "minFilter": 9987,
      "wrapS": 10497,
      "wrapT": 10497
    }
  ],
  "scene": 0,
  "scenes": [
    {
      "name": "Sketchfab_Scene",
      "nodes": [
        0
      ]
    }
  ],
  "textures": [
    {
      "sampler": 0,
      "source": 0
    }
  ]
}
