{
  "accessors": [
    {
      "bufferView": 1,
      "componentType": 5126,
      "count": 65532,
      "max": [
        0.10067194700241089,
        0.03441211208701134,
        0.06159643828868866
      ],
      "min": [
        -0.10067194700241089,
        0.0026914607733488083,
        -0.07373788952827454
      ],
      "type": "VEC3"
    },
    {
      "bufferView": 1,
      "byteOffset": 786384,
      "componentType": 5126,
      "count": 65532,
      "max": [
        0.9999939203262329,
        1.0,
        0.9999822974205017
      ],
      "min": [
        -0.9999967813491821,
        -1.0,
        -0.9999811053276062
      ],
      "type": "VEC3"
    },
    {
      "bufferView": 0,
      "componentType": 5125,
      "count": 378372,
      "type": "SCALAR"
    },
    {
      "bufferView": 1,
      "byteOffset": 1572768,
      "componentType": 5126,
      "count": 52805,
      "max": [
        0.10061417520046234,
        0.04553584009408951,
        0.07373788952827454
      ],
      "min": [
        -0.10067140311002731,
        0.0,
        -0.07373788952827454
      ],
      "type": "VEC3"
    },
    {
      "bufferView": 1,
      "byteOffset": 2206428,
      "componentType": 5126,
      "count": 52805,
      "max": [
        1.0,
        1.0,
        0.9999997615814209
      ],
      "min": [
        -0.9999978542327881,
        -1.0,
        -0.9999997615814209
      ],
      "type": "VEC3"
    },
    {
      "bufferView": 0,
      "byteOffset": 1513488,
      "componentType": 5125,
      "count": 287220,
      "type": "SCALAR"
    },
    {
      "bufferView": 1,
      "byteOffset": 2840088,
      "componentType": 5126,
      "count": 2274,
      "max": [
        0.07100869715213776,
        0.03491431847214699,
        0.06343859434127808
      ],
      "min": [
        -0.07100869715213776,
        0.02891431748867035,
        0.056462645530700684
      ],
      "type": "VEC3"
    },
    {
      "bufferView": 1,
      "byteOffset": 2867376,
      "componentType": 5126,
      "count": 2274,
      "max": [
        0.9999957084655762,
        1.0,
        0.9993008375167847
      ],
      "min": [
        -0.9999957084655762,
        -1.0,
        -0.9999857544898987
      ],
      "type": "VEC3"
    },
    {
      "bufferView": 0,
      "byteOffset": 2662368,
      "componentType": 5125,
      "count": 7980,
      "type": "SCALAR"
    }
  ],
  "asset": {
    "extras": {
      "author": "Mishazawa (https://sketchfab.com/macintoshkrug)",
      "license": "CC-BY-4.0 (http://creativecommons.org/licenses/by/4.0/)",
      "source": "https://sketchfab.com/3d-models/glasses-casta-cst-1111-bk-1b193e2508284e148db67ca689658878",
      "title": "Glasses CASTA CST 1111 BK"
    },
    "generator": "Sketchfab-15.37.0",
    "version": "2.0"
  },
  "bufferViews": [
    {
      "buffer": 0,
      "byteLength": 2694288,
      "name": "floatBufferViews",
      "target": 34963
    },
    {
      "buffer": 0,
      "byteLength": 2894664,
      "byteOffset": 2694288,
      "byteStride": 12,
      "name": "floatBufferViews",
      "target": 34962
    }
  ],
  "buffers": [
    {
      "byteLength": 5588952,
      "uri": "scene.bin"
    }
  ],
  "extensionsUsed": [
    "KHR_materials_clearcoat",
    "KHR_materials_specular"
  ],
  "materials": [
    {
      "doubleSided": true,
      "extensions": {
        "KHR_materials_clearcoat": {
          "clearcoatFactor": 0.12677263110038645,
          "clearcoatRoughnessFactor": 0.04
        },
        "KHR_materials_specular": {
          "specularColorFactor": [
            1.0,
            1.0,
            1.0
          ],
          "specularFactor": 0.20837340514201447
        }
      },
      "name": "plastic",
      "pbrMetallicRoughness": {
        "baseColorFactor": [
          0.00625,
          0.00625,
          0.00625,
          1.0
        ],
        "metallicFactor": 0.0,
        "roughnessFactor": 0.9577051494623774
      }
    },
    {
      "doubleSided": true,
      "name": "aluminum",
      "pbrMetallicRoughness": {
        "baseColorFactor": [
          0.913007,
          0.914018,
          0.91828,
          1.0
        ],
        "metallicFactor": 0.0,
        "roughnessFactor": 0.9577051494623774
      }
    }
  ],
  "meshes": [
    {
      "name": "normal1_plastic_0",
      "primitives": [
        {
          "attributes": {
            "NORMAL": 1,
            "POSITION": 0
          },
          "indices": 2,
          "material": 0,
          "mode": 4
        }
      ]
    },
    {
      "name": "normal1_plastic_0",
      "primitives": [
        {
          "attributes": {
            "NORMAL": 4,
            "POSITION": 3
          },
          "indices": 5,
          "material": 0,
          "mode": 4
        }
      ]
    },
    {
      "name": "normal1_aluminum_0",
      "primitives": [
        {
          "attributes": {
            "NORMAL": 7,
            "POSITION": 6
          },
          "indices": 8,
          "material": 1,
          "mode": 4
        }
      ]
    }
  ],
  "nodes": [
    {
      "children": [
        1
      ],
      "matrix": [
        1.0,
        0.0,
        0.0,
        0.0,
        0.0,
        2.220446049250313e-16,
        -1.0,
        0.0,
        0.0,
        1.0,
        2.220446049250313e-16,
        0.0,
        0.0,
        0.0,
        0.0,
        1.0
      ],
      "name": "Sketchfab_model"
    },
    {
      "children": [
        2
      ],
      "matrix": [
        0.009999999776482582,
        0.0,
        0.0,
        0.0,
        0.0,
        0.0,
        0.009999999776482582,
        0.0,
        0.0,
        -0.009999999776482582,
        0.0,
        0.0,
        0.0,
        0.0,
        0.0,
        1.0
      ],
      "name": "f4cc5f0a9c2847738238f1ad60e3a9b8.fbx"
    },
    {
      "children": [
        3
      ],
      "name": "RootNode"
    },
    {
      "children": [
        4,
        5,
        6
      ],
      "matrix": [
        100.0,
        0.0,
        0.0,
        0.0,
        0.0,
        100.0,
        0.0,
        0.0,
        0.0,
        0.0,
        100.0,
        0.0,
        0.0,
        0.0,
        0.0,
        1.0
      ],
      "name": "normal1"
    },
    {
      "mesh": 0,
      "name": "normal1_plastic_0"
    },
    {
      "mesh": 1,
      "name": "normal1_plastic_0"
    },
    {
      "mesh": 2,
      "name": "normal1_aluminum_0"
    }
  ],
  "scene": 0,
  "scenes": [
    {
      "name": "Sketchfab_Scene",
      "nodes": [
        0
      ]
    }
  ]
}
